<svg xmlns="http://www.w3.org/2000/svg" version="1.1" xmlns:xlink="http://www.w3.org/1999/xlink" width="500" height="500"><svg width="500" height="500" viewBox="0 0 500 500" fill="none" xmlns="http://www.w3.org/2000/svg">
<path d="M500 250C500 388.071 388.071 500 250 500C111.929 500 0 388.071 0 250C0 111.929 111.929 0 250 0C388.071 0 500 111.929 500 250Z" fill="#221F1D"></path>
<path d="M270.833 131.944C270.833 120.439 261.506 111.111 250 111.111C238.494 111.111 229.167 120.439 229.167 131.944V187.5C229.167 199.006 238.494 208.333 250 208.333C261.506 208.333 270.833 199.006 270.833 187.5V131.944Z" fill="white"></path>
<path d="M362.656 209.014C372.62 203.261 376.034 190.52 370.281 180.556C364.528 170.591 351.787 167.177 341.822 172.93L293.71 200.708C283.745 206.461 280.331 219.202 286.084 229.167C291.837 239.131 304.579 242.545 314.543 236.792L362.656 209.014Z" fill="white"></path>
<path d="M341.822 327.07C351.787 332.823 364.528 329.409 370.281 319.444C376.034 309.48 372.62 296.739 362.656 290.986L314.543 263.208C304.579 257.455 291.837 260.869 286.084 270.833C280.331 280.798 283.745 293.539 293.71 299.292L341.822 327.07Z" fill="white"></path>
<path d="M229.167 368.056C229.167 379.561 238.494 388.889 250 388.889C261.506 388.889 270.833 379.561 270.833 368.056V312.5C270.833 300.994 261.506 291.667 250 291.667C238.494 291.667 229.167 300.994 229.167 312.5V368.056Z" fill="white"></path>
<path d="M137.344 290.986C127.38 296.739 123.966 309.48 129.719 319.444C135.472 329.409 148.213 332.823 158.178 327.07L206.29 299.292C216.254 293.539 219.669 280.798 213.916 270.833C208.163 260.869 195.421 257.455 185.457 263.208L137.344 290.986Z" fill="white"></path>
<path d="M158.178 172.93C148.213 167.177 135.472 170.591 129.719 180.556C123.966 190.52 127.38 203.261 137.344 209.014L185.457 236.792C195.421 242.545 208.163 239.131 213.916 229.167C219.669 219.202 216.254 206.461 206.29 200.708L158.178 172.93Z" fill="white"></path>
<path d="M250.001 216.667L275.001 230.556V263.89L250.001 277.778L225.001 263.89V230.556L250.001 216.667Z" fill="white"></path>
</svg><style>@media (prefers-color-scheme: light) { :root { filter: none; } }
@media (prefers-color-scheme: dark) { :root { filter: none; } }
</style></svg>